HIERARCHY
ROOT Hips
{
	OFFSET 0.000000 71.427986 0.000000
	CHANNELS 6 Xposition Yposition Zposition Xrotation Yrotation Zrotation
	JOINT Pelvis
	{
		OFFSET 0.000000 0.000000 0.000000
		CHANNELS 3 Xrotation Yrotation Zrotation
		JOINT LeftUpLeg
		{
			OFFSET 6.797100 -2.508499 -1.318700
			CHANNELS 3 Xrotation Yrotation Zrotation
			JOINT LeftLeg
			{
				OFFSET 0.069008 -29.241863 0.690200
				CHANNELS 3 Xrotation Yrotation Zrotation
				JOINT LeftFoot
				{
					OFFSET -0.069008 -29.568123 -0.266800
					CHANNELS 3 Xrotation Yrotation Zrotation
					JOINT LeftToeBase
					{
						OFFSET 3.145500 -8.631000 16.059900
						CHANNELS 3 Xrotation Yrotation Zrotation
						End Site
						{
							OFFSET 0.000000 18.501587 0.000000
						}
					}
				}
			}
			JOINT Left_ShortSleeve
			{
				OFFSET 0.265923 -10.480953 1.153800
				CHANNELS 3 Xrotation Yrotation Zrotation
				End Site
				{
					OFFSET 1.725763 19.823879 0.000000
				}
			}
		}
		JOINT RightUpLeg
		{
			OFFSET -6.797100 -2.508499 -1.318700
			CHANNELS 3 Xrotation Yrotation Zrotation
			JOINT RightLeg
			{
				OFFSET -0.082453 -29.241932 0.688000
				CHANNELS 3 Xrotation Yrotation Zrotation
				JOINT RightFoot
				{
					OFFSET 0.082453 -29.568058 -0.264600
					CHANNELS 3 Xrotation Yrotation Zrotation
					JOINT RightToeBase
					{
						OFFSET -3.115300 -8.682800 16.113400
						CHANNELS 3 Xrotation Yrotation Zrotation
						End Site
						{
							OFFSET 0.000000 18.567114 0.000000
						}
					}
				}
			}
			JOINT Right_ShortSleeve
			{
				OFFSET -0.265923 -10.480953 1.153800
				CHANNELS 3 Xrotation Yrotation Zrotation
				End Site
				{
					OFFSET -1.725766 19.823910 0.000000
				}
			}
		}
	}
	JOINT Spine
	{
		OFFSET 0.000000 13.368103 0.470500
		CHANNELS 3 Xrotation Yrotation Zrotation
		JOINT Spine1
		{
			OFFSET 0.147000 13.837402 0.538800
			CHANNELS 3 Xrotation Yrotation Zrotation
			JOINT Spine2
			{
				OFFSET 0.168000 16.242897 -1.435500
				CHANNELS 3 Xrotation Yrotation Zrotation
				JOINT Neck
				{
					OFFSET 0.217200 18.631500 -1.679100
					CHANNELS 3 Xrotation Yrotation Zrotation
					JOINT Head
					{
						OFFSET 0.000000 6.599396 1.385900
						CHANNELS 3 Xrotation Yrotation Zrotation
						JOINT Hat
						{
							OFFSET -0.532200 27.220596 -10.096100
							CHANNELS 3 Xrotation Yrotation Zrotation
							End Site
							{
								OFFSET 0.000000 22.029861 0.000000
							}
						}
						JOINT HairD
						{
							OFFSET -10.777400 17.437393 -1.325900
							CHANNELS 3 Xrotation Yrotation Zrotation
							JOINT HairD1
							{
								OFFSET -3.290299 -11.051193 1.062200
								CHANNELS 3 Xrotation Yrotation Zrotation
								End Site
								{
									OFFSET 0.000000 11.579437 0.000000
								}
							}
						}
						JOINT HairB
						{
							OFFSET -10.777400 17.437393 1.467900
							CHANNELS 3 Xrotation Yrotation Zrotation
							JOINT HairB1
							{
								OFFSET -1.561200 -12.956299 3.590200
								CHANNELS 3 Xrotation Yrotation Zrotation
								End Site
								{
									OFFSET 0.000000 13.534866 0.000000
								}
							}
						}
						JOINT HairA
						{
							OFFSET 9.713100 17.437393 1.467900
							CHANNELS 3 Xrotation Yrotation Zrotation
							JOINT HairA1
							{
								OFFSET 1.561200 -12.956299 3.590200
								CHANNELS 3 Xrotation Yrotation Zrotation
								End Site
								{
									OFFSET 0.000000 13.534866 0.000000
								}
							}
						}
						JOINT HairC
						{
							OFFSET 9.713100 17.437393 -1.325900
							CHANNELS 3 Xrotation Yrotation Zrotation
							JOINT HairC1
							{
								OFFSET 3.290300 -11.051193 1.062200
								CHANNELS 3 Xrotation Yrotation Zrotation
								End Site
								{
									OFFSET 0.000000 11.579437 0.000000
								}
							}
						}
					}
				}
				JOINT LeftShoulder
				{
					OFFSET 5.101800 15.108002 -2.763700
					CHANNELS 3 Xrotation Yrotation Zrotation
					JOINT LeftArm
					{
						OFFSET 9.825497 2.506317 -1.597400
						CHANNELS 3 Xrotation Yrotation Zrotation
						JOINT LeftForeArm
						{
							OFFSET 21.966244 0.000000 0.000000
							CHANNELS 3 Xrotation Yrotation Zrotation
							JOINT LeftHand
							{
								OFFSET 33.879036 0.000000 0.000000
								CHANNELS 3 Xrotation Yrotation Zrotation
								JOINT LeftHandThumb1
								{
									OFFSET 6.715286 -2.359680 3.363841
									CHANNELS 3 Xrotation Yrotation Zrotation
									JOINT LeftHandThumb2
									{
										OFFSET 2.507072 -1.447464 1.447461
										CHANNELS 3 Xrotation Yrotation Zrotation
										JOINT LeftHandThumb3
										{
											OFFSET 2.898338 -1.673355 1.673357
											CHANNELS 3 Xrotation Yrotation Zrotation
											End Site
											{
												OFFSET -0.295959 3.727692 -0.131651
											}
										}
									}
								}
								JOINT LeftHandIndex1
								{
									OFFSET 14.190811 -0.254547 3.840278
									CHANNELS 3 Xrotation Yrotation Zrotation
									JOINT LeftHandIndex2
									{
										OFFSET 3.551727 0.000000 -0.000000
										CHANNELS 3 Xrotation Yrotation Zrotation
										JOINT LeftHandIndex3
										{
											OFFSET 2.894196 0.000000 0.000000
											CHANNELS 3 Xrotation Yrotation Zrotation
											End Site
											{
												OFFSET -1.000603 2.690872 0.366626
											}
										}
									}
								}
								JOINT LeftHandMiddle1
								{
									OFFSET 13.776489 0.000000 0.000000
									CHANNELS 3 Xrotation Yrotation Zrotation
									JOINT LeftHandMiddle2
									{
										OFFSET 3.438232 0.000000 0.000000
										CHANNELS 3 Xrotation Yrotation Zrotation
										JOINT LeftHandMiddle3
										{
											OFFSET 3.691551 0.000000 0.000000
											CHANNELS 3 Xrotation Yrotation Zrotation
											End Site
											{
												OFFSET -1.082298 3.499527 0.457670
											}
										}
									}
								}
								JOINT LeftHandRing1
								{
									OFFSET 13.966164 -0.268127 -3.067488
									CHANNELS 3 Xrotation Yrotation Zrotation
									JOINT LeftHandRing2
									{
										OFFSET 3.162567 0.000000 0.000000
										CHANNELS 3 Xrotation Yrotation Zrotation
										JOINT LeftHandRing3
										{
											OFFSET 3.324348 0.000000 0.000000
											CHANNELS 3 Xrotation Yrotation Zrotation
											End Site
											{
												OFFSET -0.861900 3.184998 0.405154
											}
										}
									}
								}
								JOINT LeftHandPinky1
								{
									OFFSET 13.131393 -0.168503 -5.746925
									CHANNELS 3 Xrotation Yrotation Zrotation
									JOINT LeftHandPinky2
									{
										OFFSET 2.849182 0.000000 0.000000
										CHANNELS 3 Xrotation Yrotation Zrotation
										JOINT LeftHandPinky3
										{
											OFFSET 2.805038 0.000000 0.000000
											CHANNELS 3 Xrotation Yrotation Zrotation
											End Site
											{
												OFFSET -0.882500 2.642609 0.325652
											}
										}
									}
								}
							}
							JOINT Left_Sleeve
							{
								OFFSET 6.592125 -0.646545 0.805568
								CHANNELS 3 Xrotation Yrotation Zrotation
								End Site
								{
									OFFSET -0.000179 20.275787 -0.000000
								}
							}
						}
					}
				}
				JOINT RightShoulder
				{
					OFFSET -5.731700 15.108002 -2.763700
					CHANNELS 3 Xrotation Yrotation Zrotation
					JOINT RightArm
					{
						OFFSET -9.825497 2.506317 -1.597400
						CHANNELS 3 Xrotation Yrotation Zrotation
						JOINT RightForeArm
						{
							OFFSET -21.966242 0.000000 0.000000
							CHANNELS 3 Xrotation Yrotation Zrotation
							JOINT RightHand
							{
								OFFSET -33.879032 0.000000 0.000000
								CHANNELS 3 Xrotation Yrotation Zrotation
								JOINT RightHandThumb1
								{
									OFFSET -6.715286 -2.359680 3.363841
									CHANNELS 3 Xrotation Yrotation Zrotation
									JOINT RightHandThumb2
									{
										OFFSET -2.507072 -1.447464 1.447461
										CHANNELS 3 Xrotation Yrotation Zrotation
										JOINT RightHandThumb3
										{
											OFFSET -2.898338 -1.673355 1.673357
											CHANNELS 3 Xrotation Yrotation Zrotation
											End Site
											{
												OFFSET 0.295959 3.727692 -0.131651
											}
										}
									}
								}
								JOINT RightHandIndex1
								{
									OFFSET -14.190811 -0.254547 3.840278
									CHANNELS 3 Xrotation Yrotation Zrotation
									JOINT RightHandIndex2
									{
										OFFSET -3.551727 0.000000 -0.000000
										CHANNELS 3 Xrotation Yrotation Zrotation
										JOINT RightHandIndex3
										{
											OFFSET -2.894196 0.000000 0.000000
											CHANNELS 3 Xrotation Yrotation Zrotation
											End Site
											{
												OFFSET 1.000603 2.690872 0.366626
											}
										}
									}
								}
								JOINT RightHandMiddle1
								{
									OFFSET -13.776489 0.000000 0.000000
									CHANNELS 3 Xrotation Yrotation Zrotation
									JOINT RightHandMiddle2
									{
										OFFSET -3.438232 0.000000 0.000000
										CHANNELS 3 Xrotation Yrotation Zrotation
										JOINT RightHandMiddle3
										{
											OFFSET -3.691551 0.000000 0.000000
											CHANNELS 3 Xrotation Yrotation Zrotation
											End Site
											{
												OFFSET 1.082298 3.499527 0.457670
											}
										}
									}
								}
								JOINT RightHandRing1
								{
									OFFSET -13.966164 -0.268127 -3.067488
									CHANNELS 3 Xrotation Yrotation Zrotation
									JOINT RightHandRing2
									{
										OFFSET -3.162567 0.000000 0.000000
										CHANNELS 3 Xrotation Yrotation Zrotation
										JOINT RightHandRing3
										{
											OFFSET -3.324348 0.000000 0.000000
											CHANNELS 3 Xrotation Yrotation Zrotation
											End Site
											{
												OFFSET 0.861900 3.184998 0.405154
											}
										}
									}
								}
								JOINT RightHandPinky1
								{
									OFFSET -13.131393 -0.168503 -5.746925
									CHANNELS 3 Xrotation Yrotation Zrotation
									JOINT RightHandPinky2
									{
										OFFSET -2.849182 0.000000 0.000000
										CHANNELS 3 Xrotation Yrotation Zrotation
										JOINT RightHandPinky3
										{
											OFFSET -2.805038 0.000000 0.000000
											CHANNELS 3 Xrotation Yrotation Zrotation
											End Site
											{
												OFFSET 0.882500 2.642609 0.325652
											}
										}
									}
								}
							}
							JOINT Right_Sleeve
							{
								OFFSET -6.592125 -0.646545 0.805568
								CHANNELS 3 Xrotation Yrotation Zrotation
								End Site
								{
									OFFSET 0.000179 20.275787 -0.000000
								}
							}
						}
					}
				}
				JOINT Bind_Right_JacketString
				{
					OFFSET -3.534800 11.969597 7.200700
					CHANNELS 3 Xrotation Yrotation Zrotation
					JOINT Bind_Right_JacketString1
					{
						OFFSET -0.319900 -6.102600 2.794100
						CHANNELS 3 Xrotation Yrotation Zrotation
						End Site
						{
							OFFSET 0.000000 6.719452 0.000000
						}
					}
				}
				JOINT Bind_Left_JacketString
				{
					OFFSET 2.904800 11.969597 7.200700
					CHANNELS 3 Xrotation Yrotation Zrotation
					JOINT Bind_Left_JacketString1
					{
						OFFSET 0.364800 -5.904503 3.186800
						CHANNELS 3 Xrotation Yrotation Zrotation
						End Site
						{
							OFFSET 0.000000 6.719513 0.000000
						}
					}
				}
				JOINT HairE
				{
					OFFSET 5.915200 17.612701 -11.592200
					CHANNELS 3 Xrotation Yrotation Zrotation
					JOINT HairE1
					{
						OFFSET 0.289200 -7.171898 -1.284500
						CHANNELS 3 Xrotation Yrotation Zrotation
						End Site
						{
							OFFSET 0.000000 7.291756 0.000000
						}
					}
				}
				JOINT HairF
				{
					OFFSET -0.864800 17.612701 -11.592200
					CHANNELS 3 Xrotation Yrotation Zrotation
					JOINT HairF1
					{
						OFFSET 0.000000 -14.087097 -2.127501
						CHANNELS 3 Xrotation Yrotation Zrotation
						End Site
						{
							OFFSET 0.000000 14.246841 0.000000
						}
					}
				}
				JOINT HairG
				{
					OFFSET -8.087700 17.612701 -11.592200
					CHANNELS 3 Xrotation Yrotation Zrotation
					JOINT HairG1
					{
						OFFSET -0.293600 -6.081398 -0.910100
						CHANNELS 3 Xrotation Yrotation Zrotation
						End Site
						{
							OFFSET 0.000000 6.156120 0.000000
						}
					}
				}
			}
		}
	}
	JOINT Pouch
	{
		OFFSET 0.000000 4.394501 10.847300
		CHANNELS 3 Xrotation Yrotation Zrotation
		End Site
		{
			OFFSET 0.000000 21.880577 0.000000
		}
	}
	JOINT Bag
	{
		OFFSET -13.229000 4.813004 -0.593300
		CHANNELS 3 Xrotation Yrotation Zrotation
		End Site
		{
			OFFSET 0.000000 21.880577 0.000000
		}
	}
	JOINT OccupyGuyFacialAnim_Joint
	{
		OFFSET 1.000000 -70.206398 -1.655000
		CHANNELS 3 Xrotation Yrotation Zrotation
		End Site
		{
			OFFSET 0.000000 21.880577 0.000000
		}
	}
}
MOTION
Frames: 4
Frame Time: 0.033333
0.022590 78.126060 -1.627502 -93.699916 0.947369 -0.083933 0.000000 -0.000000 -0.000000 1.104495 18.072073 16.921374 6.335249 9.260846 -4.485252 25.089266 28.659392 -24.500401 0.000001 -0.000001 -0.000000 -0.000000 -0.000000 -0.000001 -0.366360 -21.816183 -15.848216 6.478954 -9.593754 -2.821864 35.881470 -30.048758 30.704378 0.000001 -0.000001 0.000001 0.000000 -0.000001 -0.000000 1.856521 -0.808159 -1.662278 2.503334 -1.689224 -2.695534 2.502492 -1.690768 -2.695326 -6.241377 -1.288867 1.330654 5.533913 -4.269853 5.963811 0.000000 -0.000000 0.000000 0.000000 -0.000000 0.000000 0.000000 -0.000000 0.000000 0.000000 -0.000000 0.000000 0.000000 -0.000001 0.000000 0.000000 -0.000000 0.000000 0.000000 -0.000001 0.000000 0.000000 -0.000000 0.000000 0.000000 -0.000000 0.000000 0.945976 -8.079493 0.272691 23.833001 -17.925239 -64.917915 0.000010 -125.265342 0.000028 6.110907 -13.209371 33.071902 1.145136 -1.505619 -13.962758 9.008291 35.736444 3.098924 -0.000000 0.000001 -0.000000 4.741928 8.080396 -78.374727 2.450072 4.763910 -54.413716 0.000002 0.000000 -0.000004 5.317429 8.168283 -84.083638 4.132130 5.593703 -72.887517 0.000002 0.000003 -0.000004 5.775505 8.197294 -88.583927 5.363529 5.830807 -85.212095 0.000001 0.000002 -0.000001 6.012404 8.198572 -90.946066 4.508793 5.695554 -76.715544 -0.000001 -0.000001 0.000003 0.000001 -0.000000 0.000002 0.433849 5.680796 17.647354 22.440750 20.223343 50.235843 0.000013 125.055928 -0.000023 -7.421955 6.643477 -25.844159 -8.801291 -4.827934 15.947621 8.642794 -34.117031 -3.467732 -0.000000 -0.000000 0.000003 3.650873 -6.810779 76.865159 1.407553 -3.337829 45.720470 0.000002 -0.000000 0.000000 4.292864 -6.913220 84.873119 2.592018 -4.175156 63.651585 0.000000 -0.000003 -0.000001 4.451545 -6.924593 86.831491 3.715540 -4.561204 78.322435 -0.000000 -0.000003 -0.000001 4.175044 -6.901334 83.424026 3.915921 -4.597940 80.831635 -0.000000 0.000002 -0.000003 0.000001 0.000001 0.000002 -0.000000 0.000000 -0.000000 -0.000000 0.000000 0.000001 -0.000000 0.000000 0.000000 -0.000000 0.000000 0.000000 -0.000000 0.000000 -0.000000 -0.000000 0.000000 0.000001 -0.000000 0.000000 0.000000 -0.000000 0.000000 0.000000 -0.000000 0.000000 -0.000000 -0.000000 0.000000 0.000001 0.000000 -0.000000 -0.000000 0.000000 -0.000000 -0.000000 0.000000 -0.000000 -0.000000 
0.040983 78.286560 -1.902565 -94.972865 1.569812 0.308891 0.000000 -0.000000 -0.000000 3.380261 18.131331 15.584663 4.566577 9.318023 -3.859753 25.430358 25.152460 -23.079701 0.000002 0.000003 -0.000000 0.000000 0.000001 -0.000000 0.967972 -21.898140 -16.070390 7.157466 -7.825297 -2.734276 34.084556 -28.861121 29.985237 -0.000000 -0.000002 0.000002 0.000000 0.000001 -0.000001 2.408006 -0.826729 -1.656430 3.687871 -1.751392 -2.662549 3.692611 -1.745854 -2.647531 -4.572480 -1.147563 1.279266 4.498675 -4.125246 5.264927 0.000000 0.000001 -0.000000 0.000000 0.000001 -0.000000 0.000000 0.000001 -0.000000 0.000000 0.000001 -0.000000 -0.000000 0.000001 -0.000000 0.000000 0.000001 -0.000000 -0.000000 0.000001 -0.000000 0.000000 0.000001 -0.000000 0.000000 0.000001 -0.000000 0.897812 -8.628934 -4.259898 21.767137 -12.783109 -65.658192 -0.000018 -126.218276 -0.000005 5.558180 -12.401246 27.581936 1.145131 -1.505618 -13.962768 9.008294 35.736444 3.098923 0.000001 -0.000000 0.000000 4.741935 8.080389 -78.374747 2.450073 4.763908 -54.413723 0.000004 0.000001 -0.000000 5.317426 8.168282 -84.083638 4.132134 5.593706 -72.887510 -0.000001 -0.000000 -0.000005 5.775506 8.197288 -88.583947 5.363541 5.830794 -85.212088 -0.000001 0.000002 0.000000 6.012403 8.198575 -90.946072 4.508787 5.695554 -76.715544 -0.000002 0.000001 0.000003 -0.000000 0.000001 -0.000001 0.270411 5.796213 19.536981 20.906879 18.762178 50.054351 0.000017 124.981725 -0.000022 -7.107714 5.862443 -24.354727 -8.801278 -4.827933 15.947631 8.642794 -34.117031 -3.467732 0.000001 -0.000001 -0.000000 3.650876 -6.810776 76.865153 1.407552 -3.337829 45.720470 0.000002 -0.000002 0.000002 4.292867 -6.913220 84.873119 2.592014 -4.175155 63.651598 -0.000000 0.000001 -0.000001 4.451551 -6.924593 86.831498 3.715538 -4.561196 78.322435 0.000000 -0.000001 -0.000000 4.175047 -6.901334 83.424026 3.915917 -4.597941 80.831635 -0.000001 -0.000000 0.000001 0.000001 0.000001 0.000002 0.000000 -0.000000 0.000000 0.000000 -0.000000 0.000000 0.000000 -0.000000 0.000000 0.000000 -0.000000 0.000000 0.000000 -0.000000 0.000000 0.000000 -0.000000 -0.000000 0.000000 -0.000000 0.000000 0.000000 -0.000000 0.000000 0.000000 -0.000000 0.000000 0.000000 -0.000000 -0.000000 0.000000 -0.000000 -0.000000 0.000000 -0.000000 -0.000000 0.000000 -0.000000 -0.000000 
0.109651 78.393051 -2.178123 -96.393032 2.183815 0.711435 -0.000000 -0.000000 -0.000000 4.867367 17.962863 14.391279 4.714721 9.214451 -3.115440 24.542161 21.784917 -21.899729 0.000000 0.000002 -0.000001 -0.000000 -0.000001 -0.000001 2.037466 -22.038664 -16.420251 8.481790 -7.824246 -2.627735 30.918723 -26.074860 29.668576 -0.000001 -0.000001 -0.000000 0.000001 -0.000002 -0.000001 2.965281 -0.875022 -1.681789 5.013804 -1.873439 -2.642638 5.028538 -1.863016 -2.645597 -2.626469 -0.995704 1.220758 4.272426 -3.864671 4.639887 0.000000 -0.000000 0.000000 0.000000 -0.000000 0.000000 0.000000 -0.000000 0.000000 0.000000 -0.000000 0.000000 0.000000 -0.000000 0.000000 0.000000 -0.000000 0.000000 0.000000 -0.000000 0.000000 0.000000 -0.000000 0.000000 0.000000 -0.000000 0.000000 0.815597 -9.317055 -8.383230 18.004886 -8.713156 -64.850583 0.000051 -126.402431 0.000060 3.509222 -10.945540 23.597241 1.145143 -1.505629 -13.962756 9.008289 35.736444 3.098924 0.000001 -0.000000 0.000001 4.741932 8.080395 -78.374720 2.450075 4.763909 -54.413720 0.000001 0.000001 -0.000003 5.317424 8.168284 -84.083638 4.132129 5.593709 -72.887483 0.000002 -0.000001 -0.000005 5.775505 8.197292 -88.583947 5.363538 5.830802 -85.212088 -0.000001 -0.000000 -0.000000 6.012408 8.198572 -90.946066 4.508796 5.695555 -76.715551 -0.000000 -0.000001 0.000003 0.000001 0.000002 0.000001 -0.306161 5.898354 22.997816 17.405839 15.802548 50.738699 0.000021 124.751834 -0.000020 -7.628060 3.979246 -20.061989 -8.801280 -4.827937 15.947660 8.642797 -34.117031 -3.467733 -0.000000 0.000000 0.000002 3.650871 -6.810783 76.865166 1.407553 -3.337830 45.720470 -0.000002 0.000000 0.000000 4.292873 -6.913215 84.873140 2.592016 -4.175154 63.651578 0.000001 -0.000003 0.000002 4.451551 -6.924595 86.831519 3.715535 -4.561204 78.322442 0.000002 0.000000 -0.000001 4.175045 -6.901333 83.424040 3.915919 -4.597938 80.831655 -0.000000 0.000002 -0.000001 0.000001 -0.000001 -0.000003 0.000000 -0.000000 -0.000000 -0.000000 -0.000000 0.000000 0.000000 -0.000000 -0.000000 0.000000 -0.000000 -0.000000 0.000000 -0.000000 -0.000000 -0.000000 -0.000000 -0.000000 0.000000 -0.000000 -0.000000 0.000000 -0.000000 -0.000000 0.000000 -0.000000 -0.000000 -0.000000 -0.000000 -0.000000 -0.000000 -0.000000 -0.000000 -0.000000 -0.000000 -0.000000 -0.000000 -0.000000 -0.000000 
0.235512 78.441429 -2.322807 -97.746400 2.772748 1.162396 -0.000000 -0.000000 -0.000000 5.488431 17.641381 13.417705 5.835861 9.091344 -2.606203 23.575544 18.457427 -20.557317 0.000001 0.000002 -0.000001 -0.000000 0.000000 0.000000 0.159434 -21.948833 -17.791791 14.493124 -9.234016 -2.486582 25.321704 -21.581127 30.217532 -0.000004 -0.000001 0.000000 -0.000001 0.000003 -0.000000 3.524408 -0.967744 -1.882929 6.457985 -2.099777 -2.778078 6.488095 -2.088297 -2.816429 0.120147 -0.884876 1.153365 5.534898 -3.552962 4.042634 0.000000 -0.000000 0.000000 0.000000 -0.000000 0.000000 0.000000 -0.000000 0.000000 0.000000 -0.000000 0.000000 0.000000 -0.000000 -0.000000 0.000000 -0.000000 0.000000 0.000000 -0.000000 -0.000000 0.000000 -0.000000 0.000000 0.000000 -0.000000 0.000000 0.691603 -10.016052 -11.758539 12.792446 -5.901237 -63.809615 0.000005 -126.240078 0.000020 1.322548 -8.543936 20.380221 1.145140 -1.505624 -13.962746 9.008291 35.736448 3.098925 -0.000000 0.000001 -0.000001 4.741928 8.080396 -78.374727 2.450071 4.763908 -54.413720 0.000001 -0.000001 0.000003 5.317425 8.168288 -84.083638 4.132136 5.593699 -72.887524 0.000002 0.000001 -0.000004 5.775506 8.197293 -88.583934 5.363532 5.830801 -85.212101 -0.000000 0.000000 -0.000001 6.012403 8.198567 -90.946079 4.508780 5.695541 -76.715544 -0.000000 -0.000001 0.000003 -0.000001 0.000000 0.000005 -0.577756 6.017736 25.085827 12.198232 13.993176 52.516522 0.000036 123.469849 -0.000038 -9.083607 2.651835 -15.730026 -8.801283 -4.827935 15.947626 8.642795 -34.117027 -3.467735 -0.000001 0.000001 -0.000002 3.650871 -6.810776 76.865159 1.407553 -3.337830 45.720467 0.000001 0.000000 0.000000 4.292869 -6.913219 84.873146 2.592022 -4.175161 63.651585 0.000001 -0.000002 0.000004 4.451552 -6.924588 86.831505 3.715541 -4.561191 78.322442 0.000000 0.000001 -0.000002 4.175050 -6.901329 83.424033 3.915910 -4.597945 80.831635 -0.000000 0.000002 0.000003 0.000000 -0.000000 -0.000002 0.000001 0.000000 -0.000000 -0.000000 -0.000000 -0.000000 0.000001 0.000000 -0.000000 0.000001 0.000000 -0.000000 0.000001 0.000000 -0.000000 -0.000000 -0.000000 -0.000000 0.000001 0.000000 -0.000000 0.000001 0.000000 -0.000000 0.000001 0.000000 -0.000000 -0.000000 -0.000000 -0.000000 -0.000000 -0.000000 -0.000000 -0.000000 -0.000000 -0.000000 -0.000000 -0.000000 -0.000000 
